<?xml version="1.0" encoding="utf-8" ?>
<svg baseProfile="tiny" height="512px" version="1.2" width="512px" xmlns="http://www.w3.org/2000/svg" xmlns:ev="http://www.w3.org/2001/xml-events" xmlns:xlink="http://www.w3.org/1999/xlink"><defs /><circle cx="256" cy="256" fill="none" r="200" stroke="#06B6D4" stroke-width="80" /><rect fill="#06B6D4" height="120" transform="rotate(45, 356, 356)" width="60" x="356" y="356" /><circle cx="256" cy="256" fill="#0B0F19" r="120" /><polygon fill="#FFFFFF" points="256,200 286,220 276,256 236,256 226,220" /><polygon fill="#FFFFFF" points="256,144 300,172 286,200 226,200 212,172" /><polygon fill="#FFFFFF" points="312,200 336,236 320,256 286,220 300,200" /><polygon fill="#FFFFFF" points="200,200 186,220 152,256 172,236 212,200" /><polygon fill="#FFFFFF" points="226,312 236,272 276,272 286,312 256,332" /></svg>